<svg xmlns="http://www.w3.org/2000/svg" width="1600" height="1100" viewBox="0 0 1600 1100" fill="none">
  <defs>
    <linearGradient id="bg1" x1="0" y1="0" x2="1600" y2="1100" gradientUnits="userSpaceOnUse">
      <stop stop-color="#0F172A"/>
      <stop offset="0.55" stop-color="#0B2942"/>
      <stop offset="1" stop-color="#1E1B4B"/>
    </linearGradient>
    <radialGradient id="glow1" cx="0" cy="0" r="1" gradientUnits="userSpaceOnUse" gradientTransform="translate(420 280) rotate(33) scale(540 420)">
      <stop stop-color="#22D3EE" stop-opacity="0.55"/>
      <stop offset="1" stop-color="#22D3EE" stop-opacity="0"/>
    </radialGradient>
  </defs>
  <rect width="1600" height="1100" fill="url(#bg1)"/>
  <rect width="1600" height="1100" fill="url(#glow1)"/>
  <rect x="160" y="170" width="1280" height="760" rx="34" fill="#0B1228" stroke="#334155" stroke-width="2"/>
  <rect x="215" y="245" width="480" height="68" rx="14" fill="#0F1C36"/>
  <rect x="215" y="340" width="740" height="26" rx="13" fill="#1E293B"/>
  <rect x="215" y="384" width="690" height="26" rx="13" fill="#1E293B"/>
  <rect x="215" y="428" width="640" height="26" rx="13" fill="#1E293B"/>
  <rect x="985" y="245" width="400" height="290" rx="18" fill="#0E1F3A" stroke="#164E63"/>
  <rect x="1025" y="300" width="322" height="12" rx="6" fill="#67E8F9"/>
  <rect x="1025" y="338" width="266" height="12" rx="6" fill="#22D3EE"/>
  <rect x="1025" y="376" width="294" height="12" rx="6" fill="#38BDF8"/>
  <rect x="215" y="520" width="560" height="355" rx="18" fill="#0E1F3A" stroke="#164E63"/>
  <rect x="825" y="580" width="560" height="295" rx="18" fill="#0C1832" stroke="#1D4ED8"/>
  <circle cx="275" cy="205" r="7" fill="#22D3EE"/>
  <circle cx="302" cy="205" r="7" fill="#38BDF8"/>
  <circle cx="329" cy="205" r="7" fill="#A78BFA"/>
</svg>
